<mxfile host="app.diagrams.net" modified="2022-10-23T16:15:24.614Z" agent="5.0 (Windows NT 10.0; Win64; x64) AppleWebKit/537.36 (KHTML, like Gecko) Chrome/106.0.0.0 Safari/537.36" etag="swCl-h-ZoWjE7S9Kum--" version="20.5.1" type="github">
  <diagram id="G3OaYpvWjt-qT6TLBlAL" name="Page-1">
    <mxGraphModel dx="2062" dy="1118" grid="1" gridSize="10" guides="1" tooltips="1" connect="1" arrows="1" fold="1" page="1" pageScale="1" pageWidth="1700" pageHeight="1100" math="0" shadow="0">
      <root>
        <mxCell id="0" />
        <mxCell id="1" parent="0" />
        <mxCell id="XVx1EeimnZ5qTnu5lNF5-1" value="SECTION" style="rounded=0;whiteSpace=wrap;html=1;" parent="1" vertex="1">
          <mxGeometry x="230" y="110" width="120" height="60" as="geometry" />
        </mxCell>
        <mxCell id="XVx1EeimnZ5qTnu5lNF5-3" value="d" style="ellipse;whiteSpace=wrap;html=1;aspect=fixed;" parent="1" vertex="1">
          <mxGeometry x="140" y="120" width="40" height="40" as="geometry" />
        </mxCell>
        <mxCell id="XVx1EeimnZ5qTnu5lNF5-4" value="OnSite" style="rounded=0;whiteSpace=wrap;html=1;" parent="1" vertex="1">
          <mxGeometry x="60" y="160" width="60" height="30" as="geometry" />
        </mxCell>
        <mxCell id="XVx1EeimnZ5qTnu5lNF5-5" value="OffSite" style="rounded=0;whiteSpace=wrap;html=1;" parent="1" vertex="1">
          <mxGeometry x="60" y="90" width="60" height="30" as="geometry" />
        </mxCell>
        <mxCell id="XVx1EeimnZ5qTnu5lNF5-6" value="" style="endArrow=none;html=1;rounded=0;entryX=0.006;entryY=0.378;entryDx=0;entryDy=0;entryPerimeter=0;exitX=1;exitY=0.5;exitDx=0;exitDy=0;" parent="1" source="XVx1EeimnZ5qTnu5lNF5-3" target="XVx1EeimnZ5qTnu5lNF5-1" edge="1">
          <mxGeometry width="50" height="50" relative="1" as="geometry">
            <mxPoint x="180" y="170" as="sourcePoint" />
            <mxPoint x="230" y="120" as="targetPoint" />
          </mxGeometry>
        </mxCell>
        <mxCell id="XVx1EeimnZ5qTnu5lNF5-7" value="" style="endArrow=none;html=1;rounded=0;entryX=0;entryY=0.5;entryDx=0;entryDy=0;exitX=0.967;exitY=0.683;exitDx=0;exitDy=0;exitPerimeter=0;" parent="1" source="XVx1EeimnZ5qTnu5lNF5-3" target="XVx1EeimnZ5qTnu5lNF5-1" edge="1">
          <mxGeometry width="50" height="50" relative="1" as="geometry">
            <mxPoint x="180" y="200" as="sourcePoint" />
            <mxPoint x="230" y="150" as="targetPoint" />
          </mxGeometry>
        </mxCell>
        <mxCell id="XVx1EeimnZ5qTnu5lNF5-8" value="" style="endArrow=none;html=1;rounded=0;entryX=0;entryY=1;entryDx=0;entryDy=0;exitX=1;exitY=0.25;exitDx=0;exitDy=0;" parent="1" source="XVx1EeimnZ5qTnu5lNF5-4" target="XVx1EeimnZ5qTnu5lNF5-3" edge="1">
          <mxGeometry width="50" height="50" relative="1" as="geometry">
            <mxPoint x="80" y="300" as="sourcePoint" />
            <mxPoint x="130" y="250" as="targetPoint" />
          </mxGeometry>
        </mxCell>
        <mxCell id="XVx1EeimnZ5qTnu5lNF5-9" value="" style="endArrow=none;html=1;rounded=0;entryX=0;entryY=0;entryDx=0;entryDy=0;exitX=1;exitY=0.5;exitDx=0;exitDy=0;" parent="1" source="XVx1EeimnZ5qTnu5lNF5-5" target="XVx1EeimnZ5qTnu5lNF5-3" edge="1">
          <mxGeometry width="50" height="50" relative="1" as="geometry">
            <mxPoint x="120" y="150" as="sourcePoint" />
            <mxPoint x="170" y="100" as="targetPoint" />
          </mxGeometry>
        </mxCell>
        <mxCell id="XVx1EeimnZ5qTnu5lNF5-10" value="" style="endArrow=none;html=1;rounded=0;entryX=0.5;entryY=1;entryDx=0;entryDy=0;exitX=0.5;exitY=0;exitDx=0;exitDy=0;" parent="1" source="XVx1EeimnZ5qTnu5lNF5-1" edge="1">
          <mxGeometry width="50" height="50" relative="1" as="geometry">
            <mxPoint x="320" y="110" as="sourcePoint" />
            <mxPoint x="290" y="70" as="targetPoint" />
          </mxGeometry>
        </mxCell>
        <mxCell id="XVx1EeimnZ5qTnu5lNF5-11" value="STUDENT" style="rounded=0;whiteSpace=wrap;html=1;" parent="1" vertex="1">
          <mxGeometry x="230" y="400" width="120" height="60" as="geometry" />
        </mxCell>
        <mxCell id="XVx1EeimnZ5qTnu5lNF5-12" value="Name" style="ellipse;whiteSpace=wrap;html=1;" parent="1" vertex="1">
          <mxGeometry x="170" y="500" width="70" height="30" as="geometry" />
        </mxCell>
        <mxCell id="XVx1EeimnZ5qTnu5lNF5-13" value="&lt;u&gt;Number&lt;/u&gt;" style="ellipse;whiteSpace=wrap;html=1;" parent="1" vertex="1">
          <mxGeometry x="260" y="520" width="60" height="30" as="geometry" />
        </mxCell>
        <mxCell id="XVx1EeimnZ5qTnu5lNF5-14" value="GPA" style="ellipse;whiteSpace=wrap;html=1;" parent="1" vertex="1">
          <mxGeometry x="350" y="500" width="60" height="30" as="geometry" />
        </mxCell>
        <mxCell id="XVx1EeimnZ5qTnu5lNF5-16" value="" style="endArrow=none;html=1;rounded=0;entryX=0.172;entryY=1.033;entryDx=0;entryDy=0;entryPerimeter=0;exitX=0.6;exitY=0.044;exitDx=0;exitDy=0;exitPerimeter=0;" parent="1" source="XVx1EeimnZ5qTnu5lNF5-12" target="XVx1EeimnZ5qTnu5lNF5-11" edge="1">
          <mxGeometry width="50" height="50" relative="1" as="geometry">
            <mxPoint x="110" y="500" as="sourcePoint" />
            <mxPoint x="160" y="450" as="targetPoint" />
          </mxGeometry>
        </mxCell>
        <mxCell id="XVx1EeimnZ5qTnu5lNF5-17" value="" style="endArrow=none;html=1;rounded=0;entryX=0.5;entryY=1;entryDx=0;entryDy=0;exitX=0.5;exitY=0;exitDx=0;exitDy=0;" parent="1" source="XVx1EeimnZ5qTnu5lNF5-13" target="XVx1EeimnZ5qTnu5lNF5-11" edge="1">
          <mxGeometry width="50" height="50" relative="1" as="geometry">
            <mxPoint x="250" y="530" as="sourcePoint" />
            <mxPoint x="300" y="480" as="targetPoint" />
          </mxGeometry>
        </mxCell>
        <mxCell id="XVx1EeimnZ5qTnu5lNF5-18" value="" style="endArrow=none;html=1;rounded=0;entryX=0.839;entryY=0.989;entryDx=0;entryDy=0;entryPerimeter=0;exitX=0;exitY=0;exitDx=0;exitDy=0;" parent="1" source="XVx1EeimnZ5qTnu5lNF5-14" target="XVx1EeimnZ5qTnu5lNF5-11" edge="1">
          <mxGeometry width="50" height="50" relative="1" as="geometry">
            <mxPoint x="300" y="530" as="sourcePoint" />
            <mxPoint x="350" y="480" as="targetPoint" />
          </mxGeometry>
        </mxCell>
        <mxCell id="XVx1EeimnZ5qTnu5lNF5-19" value="PROFESSOR" style="rounded=0;whiteSpace=wrap;html=1;" parent="1" vertex="1">
          <mxGeometry x="560" y="310" width="120" height="60" as="geometry" />
        </mxCell>
        <mxCell id="XVx1EeimnZ5qTnu5lNF5-20" value="COURSE" style="rounded=0;whiteSpace=wrap;html=1;" parent="1" vertex="1">
          <mxGeometry x="600" y="110" width="120" height="60" as="geometry" />
        </mxCell>
        <mxCell id="XVx1EeimnZ5qTnu5lNF5-21" value="OFFERS" style="rhombus;whiteSpace=wrap;html=1;" parent="1" vertex="1">
          <mxGeometry x="440" y="100" width="80" height="80" as="geometry" />
        </mxCell>
        <mxCell id="XVx1EeimnZ5qTnu5lNF5-22" value="" style="endArrow=none;html=1;rounded=0;entryX=0;entryY=0.5;entryDx=0;entryDy=0;exitX=1;exitY=0.5;exitDx=0;exitDy=0;" parent="1" source="XVx1EeimnZ5qTnu5lNF5-21" target="XVx1EeimnZ5qTnu5lNF5-20" edge="1">
          <mxGeometry width="50" height="50" relative="1" as="geometry">
            <mxPoint x="520" y="240" as="sourcePoint" />
            <mxPoint x="570" y="190" as="targetPoint" />
          </mxGeometry>
        </mxCell>
        <mxCell id="XVx1EeimnZ5qTnu5lNF5-23" value="" style="endArrow=none;html=1;rounded=0;entryX=0;entryY=0.5;entryDx=0;entryDy=0;exitX=1;exitY=0.5;exitDx=0;exitDy=0;" parent="1" source="XVx1EeimnZ5qTnu5lNF5-1" target="XVx1EeimnZ5qTnu5lNF5-21" edge="1">
          <mxGeometry width="50" height="50" relative="1" as="geometry">
            <mxPoint x="340" y="220" as="sourcePoint" />
            <mxPoint x="390" y="170" as="targetPoint" />
          </mxGeometry>
        </mxCell>
        <mxCell id="XVx1EeimnZ5qTnu5lNF5-24" value="M" style="text;html=1;strokeColor=none;fillColor=none;align=center;verticalAlign=middle;whiteSpace=wrap;rounded=0;" parent="1" vertex="1">
          <mxGeometry x="390" y="110" width="60" height="30" as="geometry" />
        </mxCell>
        <mxCell id="XVx1EeimnZ5qTnu5lNF5-25" value="1" style="text;html=1;strokeColor=none;fillColor=none;align=center;verticalAlign=middle;whiteSpace=wrap;rounded=0;" parent="1" vertex="1">
          <mxGeometry x="510" y="110" width="60" height="30" as="geometry" />
        </mxCell>
        <mxCell id="XVx1EeimnZ5qTnu5lNF5-26" value="REGISTERS" style="rhombus;whiteSpace=wrap;html=1;" parent="1" vertex="1">
          <mxGeometry x="250" y="240" width="80" height="80" as="geometry" />
        </mxCell>
        <mxCell id="XVx1EeimnZ5qTnu5lNF5-27" value="" style="endArrow=none;html=1;rounded=0;entryX=0.5;entryY=1;entryDx=0;entryDy=0;exitX=0.5;exitY=0;exitDx=0;exitDy=0;" parent="1" source="XVx1EeimnZ5qTnu5lNF5-11" target="XVx1EeimnZ5qTnu5lNF5-26" edge="1">
          <mxGeometry width="50" height="50" relative="1" as="geometry">
            <mxPoint x="230" y="410" as="sourcePoint" />
            <mxPoint x="280" y="360" as="targetPoint" />
          </mxGeometry>
        </mxCell>
        <mxCell id="XVx1EeimnZ5qTnu5lNF5-28" value="" style="endArrow=none;html=1;rounded=0;entryX=0.5;entryY=1;entryDx=0;entryDy=0;exitX=0.5;exitY=0;exitDx=0;exitDy=0;" parent="1" source="XVx1EeimnZ5qTnu5lNF5-26" target="XVx1EeimnZ5qTnu5lNF5-1" edge="1">
          <mxGeometry width="50" height="50" relative="1" as="geometry">
            <mxPoint x="180" y="290" as="sourcePoint" />
            <mxPoint x="230" y="240" as="targetPoint" />
          </mxGeometry>
        </mxCell>
        <mxCell id="XVx1EeimnZ5qTnu5lNF5-29" value="" style="endArrow=none;html=1;rounded=0;entryX=0.594;entryY=1.044;entryDx=0;entryDy=0;entryPerimeter=0;exitX=0.608;exitY=0.1;exitDx=0;exitDy=0;exitPerimeter=0;" parent="1" source="XVx1EeimnZ5qTnu5lNF5-26" target="XVx1EeimnZ5qTnu5lNF5-1" edge="1">
          <mxGeometry width="50" height="50" relative="1" as="geometry">
            <mxPoint x="300" y="280" as="sourcePoint" />
            <mxPoint x="350" y="230" as="targetPoint" />
          </mxGeometry>
        </mxCell>
        <mxCell id="XVx1EeimnZ5qTnu5lNF5-30" value="TEACHES" style="rhombus;whiteSpace=wrap;html=1;" parent="1" vertex="1">
          <mxGeometry x="390" y="205" width="80" height="80" as="geometry" />
        </mxCell>
        <mxCell id="XVx1EeimnZ5qTnu5lNF5-31" value="" style="endArrow=none;html=1;rounded=0;entryX=1;entryY=1;entryDx=0;entryDy=0;exitX=0;exitY=0;exitDx=0;exitDy=0;" parent="1" source="XVx1EeimnZ5qTnu5lNF5-19" target="XVx1EeimnZ5qTnu5lNF5-30" edge="1">
          <mxGeometry width="50" height="50" relative="1" as="geometry">
            <mxPoint x="490" y="450" as="sourcePoint" />
            <mxPoint x="540" y="400" as="targetPoint" />
          </mxGeometry>
        </mxCell>
        <mxCell id="XVx1EeimnZ5qTnu5lNF5-32" value="" style="endArrow=none;html=1;rounded=0;entryX=1;entryY=1;entryDx=0;entryDy=0;" parent="1" source="XVx1EeimnZ5qTnu5lNF5-30" target="XVx1EeimnZ5qTnu5lNF5-1" edge="1">
          <mxGeometry width="50" height="50" relative="1" as="geometry">
            <mxPoint x="390" y="280" as="sourcePoint" />
            <mxPoint x="440" y="230" as="targetPoint" />
          </mxGeometry>
        </mxCell>
        <mxCell id="XVx1EeimnZ5qTnu5lNF5-33" value="M" style="text;html=1;strokeColor=none;fillColor=none;align=center;verticalAlign=middle;whiteSpace=wrap;rounded=0;" parent="1" vertex="1">
          <mxGeometry x="370" y="180" width="60" height="30" as="geometry" />
        </mxCell>
        <mxCell id="XVx1EeimnZ5qTnu5lNF5-34" value="1" style="text;html=1;strokeColor=none;fillColor=none;align=center;verticalAlign=middle;whiteSpace=wrap;rounded=0;" parent="1" vertex="1">
          <mxGeometry x="420" y="270" width="60" height="30" as="geometry" />
        </mxCell>
        <mxCell id="XVx1EeimnZ5qTnu5lNF5-35" value="TAUGHTBY" style="rhombus;whiteSpace=wrap;html=1;" parent="1" vertex="1">
          <mxGeometry x="590" y="205" width="80" height="80" as="geometry" />
        </mxCell>
        <mxCell id="XVx1EeimnZ5qTnu5lNF5-36" value="" style="endArrow=none;html=1;rounded=0;entryX=0.5;entryY=1;entryDx=0;entryDy=0;" parent="1" target="XVx1EeimnZ5qTnu5lNF5-35" edge="1">
          <mxGeometry width="50" height="50" relative="1" as="geometry">
            <mxPoint x="630" y="310" as="sourcePoint" />
            <mxPoint x="670" y="360" as="targetPoint" />
          </mxGeometry>
        </mxCell>
        <mxCell id="XVx1EeimnZ5qTnu5lNF5-37" value="" style="endArrow=none;html=1;rounded=0;entryX=0.25;entryY=1;entryDx=0;entryDy=0;exitX=0.5;exitY=0;exitDx=0;exitDy=0;" parent="1" source="XVx1EeimnZ5qTnu5lNF5-35" target="XVx1EeimnZ5qTnu5lNF5-20" edge="1">
          <mxGeometry width="50" height="50" relative="1" as="geometry">
            <mxPoint x="600" y="270" as="sourcePoint" />
            <mxPoint x="650" y="220" as="targetPoint" />
          </mxGeometry>
        </mxCell>
        <mxCell id="XVx1EeimnZ5qTnu5lNF5-38" value="1" style="text;html=1;strokeColor=none;fillColor=none;align=center;verticalAlign=middle;whiteSpace=wrap;rounded=0;" parent="1" vertex="1">
          <mxGeometry x="615" y="180" width="60" height="30" as="geometry" />
        </mxCell>
        <mxCell id="XVx1EeimnZ5qTnu5lNF5-39" value="1" style="text;html=1;strokeColor=none;fillColor=none;align=center;verticalAlign=middle;whiteSpace=wrap;rounded=0;" parent="1" vertex="1">
          <mxGeometry x="620" y="270" width="60" height="30" as="geometry" />
        </mxCell>
        <mxCell id="XVx1EeimnZ5qTnu5lNF5-40" value="&lt;u&gt;Number&lt;/u&gt;" style="ellipse;whiteSpace=wrap;html=1;" parent="1" vertex="1">
          <mxGeometry x="610" y="40" width="70" height="30" as="geometry" />
        </mxCell>
        <mxCell id="XVx1EeimnZ5qTnu5lNF5-41" value="Name" style="ellipse;whiteSpace=wrap;html=1;" parent="1" vertex="1">
          <mxGeometry x="690" y="40" width="70" height="30" as="geometry" />
        </mxCell>
        <mxCell id="XVx1EeimnZ5qTnu5lNF5-42" value="" style="endArrow=none;html=1;rounded=0;entryX=0.5;entryY=1;entryDx=0;entryDy=0;exitX=0.383;exitY=-0.011;exitDx=0;exitDy=0;exitPerimeter=0;" parent="1" source="XVx1EeimnZ5qTnu5lNF5-20" target="XVx1EeimnZ5qTnu5lNF5-40" edge="1">
          <mxGeometry width="50" height="50" relative="1" as="geometry">
            <mxPoint x="590" y="130" as="sourcePoint" />
            <mxPoint x="640" y="80" as="targetPoint" />
          </mxGeometry>
        </mxCell>
        <mxCell id="XVx1EeimnZ5qTnu5lNF5-43" value="" style="endArrow=none;html=1;rounded=0;entryX=0.5;entryY=1;entryDx=0;entryDy=0;" parent="1" source="XVx1EeimnZ5qTnu5lNF5-20" target="XVx1EeimnZ5qTnu5lNF5-41" edge="1">
          <mxGeometry width="50" height="50" relative="1" as="geometry">
            <mxPoint x="750" y="210" as="sourcePoint" />
            <mxPoint x="800" y="160" as="targetPoint" />
          </mxGeometry>
        </mxCell>
        <mxCell id="XVx1EeimnZ5qTnu5lNF5-44" value="N" style="text;html=1;strokeColor=none;fillColor=none;align=center;verticalAlign=middle;whiteSpace=wrap;rounded=0;" parent="1" vertex="1">
          <mxGeometry x="280" y="230" width="60" height="30" as="geometry" />
        </mxCell>
        <mxCell id="XVx1EeimnZ5qTnu5lNF5-47" value="M" style="text;html=1;strokeColor=none;fillColor=none;align=center;verticalAlign=middle;whiteSpace=wrap;rounded=0;" parent="1" vertex="1">
          <mxGeometry x="280" y="310" width="60" height="30" as="geometry" />
        </mxCell>
        <mxCell id="0tu45szEn4J1Hnn758KT-1" value="ENROLLED" style="rhombus;whiteSpace=wrap;html=1;" vertex="1" parent="1">
          <mxGeometry x="660" y="390" width="80" height="80" as="geometry" />
        </mxCell>
        <mxCell id="0tu45szEn4J1Hnn758KT-2" value="" style="endArrow=none;html=1;rounded=0;entryX=0.042;entryY=0.417;entryDx=0;entryDy=0;entryPerimeter=0;exitX=1;exitY=0.5;exitDx=0;exitDy=0;" edge="1" parent="1" source="XVx1EeimnZ5qTnu5lNF5-11" target="0tu45szEn4J1Hnn758KT-1">
          <mxGeometry width="50" height="50" relative="1" as="geometry">
            <mxPoint x="440" y="470" as="sourcePoint" />
            <mxPoint x="490" y="420" as="targetPoint" />
          </mxGeometry>
        </mxCell>
        <mxCell id="0tu45szEn4J1Hnn758KT-3" value="" style="endArrow=none;html=1;rounded=0;entryX=0;entryY=0.5;entryDx=0;entryDy=0;exitX=1.006;exitY=0.633;exitDx=0;exitDy=0;exitPerimeter=0;" edge="1" parent="1" source="XVx1EeimnZ5qTnu5lNF5-11" target="0tu45szEn4J1Hnn758KT-1">
          <mxGeometry width="50" height="50" relative="1" as="geometry">
            <mxPoint x="420" y="500" as="sourcePoint" />
            <mxPoint x="470" y="450" as="targetPoint" />
          </mxGeometry>
        </mxCell>
        <mxCell id="0tu45szEn4J1Hnn758KT-4" value="" style="endArrow=none;html=1;rounded=0;entryX=0.75;entryY=1;entryDx=0;entryDy=0;exitX=0.408;exitY=0.092;exitDx=0;exitDy=0;exitPerimeter=0;" edge="1" parent="1" source="0tu45szEn4J1Hnn758KT-1" target="XVx1EeimnZ5qTnu5lNF5-20">
          <mxGeometry width="50" height="50" relative="1" as="geometry">
            <mxPoint x="690" y="370" as="sourcePoint" />
            <mxPoint x="740" y="320" as="targetPoint" />
          </mxGeometry>
        </mxCell>
        <mxCell id="0tu45szEn4J1Hnn758KT-6" value="M" style="text;html=1;strokeColor=none;fillColor=none;align=center;verticalAlign=middle;whiteSpace=wrap;rounded=0;" vertex="1" parent="1">
          <mxGeometry x="690" y="360" width="60" height="30" as="geometry" />
        </mxCell>
        <mxCell id="0tu45szEn4J1Hnn758KT-7" value="1" style="text;html=1;strokeColor=none;fillColor=none;align=center;verticalAlign=middle;whiteSpace=wrap;rounded=0;" vertex="1" parent="1">
          <mxGeometry x="620" y="430" width="60" height="30" as="geometry" />
        </mxCell>
        <mxCell id="0tu45szEn4J1Hnn758KT-8" value="" style="verticalLabelPosition=bottom;verticalAlign=top;html=1;shape=mxgraph.basic.frame;dx=10;" vertex="1" parent="1">
          <mxGeometry x="230" y="110" width="120" height="60" as="geometry" />
        </mxCell>
        <mxCell id="0tu45szEn4J1Hnn758KT-9" value="&lt;span style=&quot;border-bottom: 1px dotted&quot;&gt;Number&lt;/span&gt;" style="ellipse;whiteSpace=wrap;html=1;align=center;" vertex="1" parent="1">
          <mxGeometry x="240" y="30" width="100" height="40" as="geometry" />
        </mxCell>
        <mxCell id="0tu45szEn4J1Hnn758KT-10" value="&lt;h1&gt;Justifications&lt;/h1&gt;&lt;p&gt;-Section has a total participation on the &#39;registers relationship&#39; because a section must have atleast 1 student.&lt;/p&gt;" style="text;html=1;strokeColor=none;fillColor=none;spacing=5;spacingTop=-20;whiteSpace=wrap;overflow=hidden;rounded=0;" vertex="1" parent="1">
          <mxGeometry x="850" y="10" width="190" height="120" as="geometry" />
        </mxCell>
        <mxCell id="0tu45szEn4J1Hnn758KT-11" value="" style="endArrow=none;html=1;rounded=0;entryX=0.189;entryY=1.022;entryDx=0;entryDy=0;entryPerimeter=0;exitX=0.375;exitY=0.154;exitDx=0;exitDy=0;exitPerimeter=0;" edge="1" parent="1" source="XVx1EeimnZ5qTnu5lNF5-35" target="XVx1EeimnZ5qTnu5lNF5-20">
          <mxGeometry width="50" height="50" relative="1" as="geometry">
            <mxPoint x="530" y="260" as="sourcePoint" />
            <mxPoint x="580" y="210" as="targetPoint" />
          </mxGeometry>
        </mxCell>
        <mxCell id="0tu45szEn4J1Hnn758KT-12" value="Mark" style="ellipse;whiteSpace=wrap;html=1;align=center;" vertex="1" parent="1">
          <mxGeometry x="740" y="460" width="100" height="40" as="geometry" />
        </mxCell>
        <mxCell id="0tu45szEn4J1Hnn758KT-13" value="" style="endArrow=none;html=1;rounded=0;entryX=1;entryY=1;entryDx=0;entryDy=0;exitX=0.06;exitY=0.25;exitDx=0;exitDy=0;exitPerimeter=0;" edge="1" parent="1" source="0tu45szEn4J1Hnn758KT-12" target="0tu45szEn4J1Hnn758KT-1">
          <mxGeometry width="50" height="50" relative="1" as="geometry">
            <mxPoint x="690" y="540" as="sourcePoint" />
            <mxPoint x="740" y="490" as="targetPoint" />
          </mxGeometry>
        </mxCell>
      </root>
    </mxGraphModel>
  </diagram>
</mxfile>
